<svg xmlns="http://www.w3.org/2000/svg" xmlns:xlink="http://www.w3.org/1999/xlink" width="600" zoomAndPan="magnify" viewBox="0 0 450 149.999998" height="200" preserveAspectRatio="xMidYMid meet" version="1.0"><defs><g/><clipPath id="677de8a0a9"><path d="M 267.03125 71.84375 L 275.625 71.84375 L 275.625 78.023438 L 267.03125 78.023438 Z M 267.03125 71.84375 " clip-rule="nonzero"/></clipPath></defs><g clip-path="url(#677de8a0a9)"><path fill="#000000" d="M 267.03125 71.84375 L 275.628906 71.84375 L 275.628906 78.023438 L 267.03125 78.023438 Z M 267.03125 71.84375 " fill-opacity="1" fill-rule="nonzero"/></g><g fill="#000000" fill-opacity="1"><g transform="translate(41.345107, 105.308814)"><g><path d="M 28.71875 0.78125 C 23.71875 0.78125 19.203125 -0.253906 15.171875 -2.328125 C 11.148438 -4.398438 8.003906 -7.273438 5.734375 -10.953125 C 3.460938 -14.640625 2.328125 -18.8125 2.328125 -23.46875 C 2.328125 -28.0625 3.460938 -32.195312 5.734375 -35.875 C 8.003906 -39.5625 11.140625 -42.425781 15.140625 -44.46875 C 19.140625 -46.507812 23.664062 -47.53125 28.71875 -47.53125 C 33.78125 -47.53125 38.320312 -46.507812 42.34375 -44.46875 C 46.375 -42.425781 49.507812 -39.578125 51.75 -35.921875 C 54 -32.273438 55.125 -28.125 55.125 -23.46875 C 55.125 -18.8125 54 -14.640625 51.75 -10.953125 C 49.507812 -7.273438 46.375 -4.398438 42.34375 -2.328125 C 38.320312 -0.253906 33.78125 0.78125 28.71875 0.78125 Z M 28.71875 -12.25 C 31.601562 -12.25 33.960938 -13.238281 35.796875 -15.21875 C 37.640625 -17.207031 38.5625 -19.957031 38.5625 -23.46875 C 38.5625 -26.914062 37.640625 -29.613281 35.796875 -31.5625 C 33.960938 -33.519531 31.601562 -34.5 28.71875 -34.5 C 25.84375 -34.5 23.484375 -33.519531 21.640625 -31.5625 C 19.804688 -29.613281 18.890625 -26.914062 18.890625 -23.46875 C 18.890625 -19.957031 19.804688 -17.207031 21.640625 -15.21875 C 23.484375 -13.238281 25.84375 -12.25 28.71875 -12.25 Z M 28.71875 -12.25 "/></g></g></g><g fill="#000000" fill-opacity="1"><g transform="translate(91.462124, 105.308814)"><g><path d="M 66.171875 -47.53125 C 71.921875 -47.53125 76.503906 -45.804688 79.921875 -42.359375 C 83.347656 -38.910156 85.0625 -33.707031 85.0625 -26.75 L 85.0625 0 L 68.671875 0 L 68.671875 -24.0625 C 68.671875 -27.34375 68.050781 -29.757812 66.8125 -31.3125 C 65.570312 -32.863281 63.832031 -33.640625 61.59375 -33.640625 C 59.125 -33.640625 57.140625 -32.773438 55.640625 -31.046875 C 54.140625 -29.328125 53.390625 -26.710938 53.390625 -23.203125 L 53.390625 0 L 37.015625 0 L 37.015625 -24.0625 C 37.015625 -30.445312 34.65625 -33.640625 29.9375 -33.640625 C 27.40625 -33.640625 25.390625 -32.773438 23.890625 -31.046875 C 22.398438 -29.328125 21.65625 -26.710938 21.65625 -23.203125 L 21.65625 0 L 5.265625 0 L 5.265625 -46.75 L 20.875 -46.75 L 20.875 -41.84375 C 22.601562 -43.738281 24.660156 -45.160156 27.046875 -46.109375 C 29.429688 -47.054688 32.03125 -47.53125 34.84375 -47.53125 C 38.125 -47.53125 41.054688 -46.925781 43.640625 -45.71875 C 46.234375 -44.507812 48.335938 -42.671875 49.953125 -40.203125 C 51.785156 -42.554688 54.109375 -44.363281 56.921875 -45.625 C 59.742188 -46.894531 62.828125 -47.53125 66.171875 -47.53125 Z M 66.171875 -47.53125 "/></g></g></g><g fill="#000000" fill-opacity="1"><g transform="translate(174.2723, 105.308814)"><g><path d="M 5.265625 -46.75 L 21.65625 -46.75 L 21.65625 0 L 5.265625 0 Z M 13.46875 -51.9375 C 10.476562 -51.9375 8.0625 -52.769531 6.21875 -54.4375 C 4.375 -56.101562 3.453125 -58.171875 3.453125 -60.640625 C 3.453125 -63.117188 4.375 -65.191406 6.21875 -66.859375 C 8.0625 -68.523438 10.476562 -69.359375 13.46875 -69.359375 C 16.457031 -69.359375 18.867188 -68.566406 20.703125 -66.984375 C 22.546875 -65.398438 23.46875 -63.375 23.46875 -60.90625 C 23.46875 -58.3125 22.546875 -56.164062 20.703125 -54.46875 C 18.867188 -52.78125 16.457031 -51.9375 13.46875 -51.9375 Z M 13.46875 -51.9375 "/></g></g></g><g fill="#000000" fill-opacity="1"><g transform="translate(193.938959, 105.308814)"><g><path d="M 36.140625 1.203125 C 29.816406 1.203125 24.140625 -0.128906 19.109375 -2.796875 C 14.078125 -5.472656 10.125 -9.195312 7.25 -13.96875 C 4.375 -18.75 2.9375 -24.15625 2.9375 -30.1875 C 2.9375 -36.226562 4.375 -41.632812 7.25 -46.40625 C 10.125 -51.1875 14.078125 -54.910156 19.109375 -57.578125 C 24.140625 -60.253906 29.816406 -61.59375 36.140625 -61.59375 C 41.660156 -61.59375 46.632812 -60.613281 51.0625 -58.65625 C 55.5 -56.707031 59.179688 -53.890625 62.109375 -50.203125 L 51.234375 -40.375 C 47.328125 -45.09375 42.585938 -47.453125 37.015625 -47.453125 C 33.734375 -47.453125 30.8125 -46.726562 28.25 -45.28125 C 25.6875 -43.84375 23.703125 -41.816406 22.296875 -39.203125 C 20.890625 -36.585938 20.1875 -33.582031 20.1875 -30.1875 C 20.1875 -26.800781 20.890625 -23.796875 22.296875 -21.171875 C 23.703125 -18.554688 25.6875 -16.53125 28.25 -15.09375 C 30.8125 -13.65625 33.734375 -12.9375 37.015625 -12.9375 C 42.585938 -12.9375 47.328125 -15.296875 51.234375 -20.015625 L 62.109375 -10.171875 C 59.179688 -6.492188 55.5 -3.675781 51.0625 -1.71875 C 46.632812 0.226562 41.660156 1.203125 36.140625 1.203125 Z M 36.140625 1.203125 "/></g></g></g><g fill="#000000" fill-opacity="1"><g transform="translate(250.26681, 105.308814)"><g><path d="M 28.71875 0.78125 C 23.71875 0.78125 19.203125 -0.253906 15.171875 -2.328125 C 11.148438 -4.398438 8.003906 -7.273438 5.734375 -10.953125 C 3.460938 -14.640625 2.328125 -18.8125 2.328125 -23.46875 C 2.328125 -28.0625 3.460938 -32.195312 5.734375 -35.875 C 8.003906 -39.5625 11.140625 -42.425781 15.140625 -44.46875 C 19.140625 -46.507812 23.664062 -47.53125 28.71875 -47.53125 C 33.78125 -47.53125 38.320312 -46.507812 42.34375 -44.46875 C 46.375 -42.425781 49.507812 -39.578125 51.75 -35.921875 C 54 -32.273438 55.125 -28.125 55.125 -23.46875 C 55.125 -18.8125 54 -14.640625 51.75 -10.953125 C 49.507812 -7.273438 46.375 -4.398438 42.34375 -2.328125 C 38.320312 -0.253906 33.78125 0.78125 28.71875 0.78125 Z M 28.71875 -12.25 C 31.601562 -12.25 33.960938 -13.238281 35.796875 -15.21875 C 37.640625 -17.207031 38.5625 -19.957031 38.5625 -23.46875 C 38.5625 -26.914062 37.640625 -29.613281 35.796875 -31.5625 C 33.960938 -33.519531 31.601562 -34.5 28.71875 -34.5 C 25.84375 -34.5 23.484375 -33.519531 21.640625 -31.5625 C 19.804688 -29.613281 18.890625 -26.914062 18.890625 -23.46875 C 18.890625 -19.957031 19.804688 -17.207031 21.640625 -15.21875 C 23.484375 -13.238281 25.84375 -12.25 28.71875 -12.25 Z M 28.71875 -12.25 "/></g></g></g><g fill="#000000" fill-opacity="1"><g transform="translate(300.383827, 105.308814)"><g><path d="M 54.953125 -64.015625 L 54.953125 0 L 39.34375 0 L 39.34375 -4.65625 C 36.289062 -1.03125 31.71875 0.78125 25.625 0.78125 C 21.363281 0.78125 17.476562 -0.207031 13.96875 -2.1875 C 10.46875 -4.175781 7.695312 -7.007812 5.65625 -10.6875 C 3.613281 -14.375 2.59375 -18.632812 2.59375 -23.46875 C 2.59375 -28.289062 3.613281 -32.53125 5.65625 -36.1875 C 7.695312 -39.84375 10.46875 -42.644531 13.96875 -44.59375 C 17.476562 -46.550781 21.363281 -47.53125 25.625 -47.53125 C 31.195312 -47.53125 35.507812 -45.921875 38.5625 -42.703125 L 38.5625 -64.015625 Z M 29.078125 -12.25 C 31.890625 -12.25 34.210938 -13.238281 36.046875 -15.21875 C 37.890625 -17.207031 38.8125 -19.957031 38.8125 -23.46875 C 38.8125 -26.914062 37.90625 -29.613281 36.09375 -31.5625 C 34.289062 -33.519531 31.953125 -34.5 29.078125 -34.5 C 26.203125 -34.5 23.84375 -33.519531 22 -31.5625 C 20.15625 -29.613281 19.234375 -26.914062 19.234375 -23.46875 C 19.234375 -19.957031 20.15625 -17.207031 22 -15.21875 C 23.84375 -13.238281 26.203125 -12.25 29.078125 -12.25 Z M 29.078125 -12.25 "/></g></g></g><g fill="#000000" fill-opacity="1"><g transform="translate(353.261227, 105.308814)"><g><path d="M 53.046875 -23.296875 C 53.046875 -23.179688 52.960938 -21.828125 52.796875 -19.234375 L 18.8125 -19.234375 C 19.5 -16.816406 20.832031 -14.960938 22.8125 -13.671875 C 24.800781 -12.378906 27.289062 -11.734375 30.28125 -11.734375 C 32.519531 -11.734375 34.457031 -12.046875 36.09375 -12.671875 C 37.738281 -13.304688 39.394531 -14.34375 41.0625 -15.78125 L 49.6875 -6.8125 C 45.144531 -1.75 38.503906 0.78125 29.765625 0.78125 C 24.296875 0.78125 19.488281 -0.253906 15.34375 -2.328125 C 11.207031 -4.398438 8.003906 -7.273438 5.734375 -10.953125 C 3.460938 -14.640625 2.328125 -18.8125 2.328125 -23.46875 C 2.328125 -28.0625 3.429688 -32.1875 5.640625 -35.84375 C 7.859375 -39.5 10.921875 -42.359375 14.828125 -44.421875 C 18.742188 -46.492188 23.144531 -47.53125 28.03125 -47.53125 C 32.695312 -47.53125 36.925781 -46.566406 40.71875 -44.640625 C 44.507812 -42.710938 47.507812 -39.921875 49.71875 -36.265625 C 51.9375 -32.617188 53.046875 -28.296875 53.046875 -23.296875 Z M 28.125 -35.890625 C 25.59375 -35.890625 23.476562 -35.171875 21.78125 -33.734375 C 20.082031 -32.296875 19.003906 -30.335938 18.546875 -27.859375 L 37.703125 -27.859375 C 37.242188 -30.335938 36.164062 -32.296875 34.46875 -33.734375 C 32.769531 -35.171875 30.65625 -35.890625 28.125 -35.890625 Z M 28.125 -35.890625 "/></g></g></g></svg>